<?xml version="1.0" encoding="UTF-8" standalone="no"?>
<svg
   version="1.0"
   width="512.000000pt"
   height="330.000000pt"
   viewBox="0 0 512.000000 330.000000"
   preserveAspectRatio="xMidYMid meet"
   id="svg6"
   sodipodi:docname="croissant_outline.svg"
   inkscape:version="1.2.2 (b0a8486541, 2022-12-01)"
   xmlns:inkscape="http://www.inkscape.org/namespaces/inkscape"
   xmlns:sodipodi="http://sodipodi.sourceforge.net/DTD/sodipodi-0.dtd"
   xmlns="http://www.w3.org/2000/svg"
   xmlns:svg="http://www.w3.org/2000/svg">
  <defs
     id="defs10" />
  <sodipodi:namedview
     id="namedview8"
     pagecolor="#ffffff"
     bordercolor="#666666"
     borderopacity="1.0"
     inkscape:showpageshadow="2"
     inkscape:pageopacity="0.0"
     inkscape:pagecheckerboard="0"
     inkscape:deskcolor="#d1d1d1"
     inkscape:document-units="pt"
     showgrid="false"
     inkscape:zoom="1.0727273"
     inkscape:cx="378.94068"
     inkscape:cy="202.28814"
     inkscape:window-width="1366"
     inkscape:window-height="709"
     inkscape:window-x="0"
     inkscape:window-y="0"
     inkscape:window-maximized="1"
     inkscape:current-layer="g4" />
  <g
     transform="translate(0.000000,330.000000) scale(0.100000,-0.100000)"
     fill="#000000"
     stroke="none"
     id="g4"
     style="stroke-width:0.99999998;stroke-dasharray:none">
    <path
       d="m 2428,3239 c -122,-10 -297,-52 -413,-98 -221,-89 -458,-258 -510,-366 -28,-56 -42,-65 -106,-65 -102,0 -331,-66 -461,-131 -212,-107 -426,-309 -518,-489 -25,-49 -31,-142 -12,-191 9,-23 1,-44 -75,-180 C 212,1502 136,1342 96,1218 6,944 -23,631 26,480 67,357 181,239 307,189 c 83,-33 252,-33 335,-1 88,35 162,96 242,202 167,217 322,323 592,405 l 117,36 71,-30 c 121,-50 187,-63 315,-60 l 116,2 75,-74 c 114,-114 242,-169 390,-169 148,0 276,55 390,169 l 75,74 116,-2 c 128,-3 194,10 315,60 l 71,30 117,-36 c 270,-82 425,-188 592,-405 80,-106 154,-167 242,-202 83,-32 252,-32 335,1 126,50 240,168 281,291 49,151 20,464 -70,738 -40,124 -116,284 -236,500 l -85,152 14,53 c 21,81 6,142 -59,239 -142,212 -366,385 -617,477 -86,32 -260,71 -318,71 -67,0 -81,9 -106,64 -16,35 -45,70 -88,108 -183,160 -422,279 -666,332 -63,14 -288,38 -318,34 -5,0 -58,-5 -117,-9 z"
       id="path2"
       inkscape:label="path2"
       style="stroke-width:1;stroke-dasharray:none"
       sodipodi:nodetypes="cccscccccccccccccccsccccccccccccccccsccccc" />
  </g>
</svg>
