<?xml version="1.0" standalone="no"?>
<!DOCTYPE svg PUBLIC "-//W3C//DTD SVG 20010904//EN"
 "http://www.w3.org/TR/2001/REC-SVG-20010904/DTD/svg10.dtd">
<svg version="1.0" xmlns="http://www.w3.org/2000/svg"
 width="512.000000pt" height="512.000000pt" viewBox="0 0 512.000000 512.000000"
 preserveAspectRatio="xMidYMid meet">

<g transform="translate(0.000000,512.000000) scale(0.100000,-0.100000)"
fill="#000000" stroke="none">
<path d="M2428 4099 c-122 -10 -297 -52 -413 -98 -221 -89 -458 -258 -510
-366 -28 -56 -42 -65 -106 -65 -102 0 -331 -66 -461 -131 -212 -107 -426 -309
-518 -489 -25 -49 -31 -142 -12 -191 9 -23 1 -44 -75 -180 -121 -217 -197
-377 -237 -501 -90 -274 -119 -587 -70 -738 41 -123 155 -241 281 -291 83 -33
252 -33 335 -1 88 35 162 96 242 202 167 217 322 323 592 405 l117 36 71 -30
c121 -50 187 -63 315 -60 l116 2 75 -74 c114 -114 242 -169 390 -169 148 0
276 55 390 169 l75 74 116 -2 c128 -3 194 10 315 60 l71 30 117 -36 c270 -82
425 -188 592 -405 80 -106 154 -167 242 -202 83 -32 252 -32 335 1 126 50 240
168 281 291 49 151 20 464 -70 738 -40 124 -116 284 -236 500 l-85 152 14 53
c21 81 6 142 -59 239 -142 212 -366 385 -617 477 -86 32 -260 71 -318 71 -67
0 -81 9 -106 64 -16 35 -45 70 -88 108 -183 160 -422 279 -666 332 -63 14
-288 38 -318 34 -5 0 -58 -5 -117 -9z m353 -184 c217 -36 425 -131 607 -278
34 -28 58 -53 53 -56 -5 -3 -122 -404 -261 -891 -138 -487 -262 -908 -275
-937 -33 -72 -106 -147 -179 -183 -189 -93 -424 -9 -511 183 -13 29 -137 450
-276 937 -139 487 -257 888 -261 891 -12 8 126 116 223 173 259 154 572 211
880 161z m-1207 -737 c155 -482 437 -1364 442 -1385 6 -22 4 -23 -61 -23 -75
0 -169 21 -228 52 -56 28 -1071 888 -1139 964 -36 41 -32 66 21 145 180 268
497 449 826 472 28 2 53 4 57 5 4 1 41 -103 82 -230z m2221 211 c281 -44 557
-221 716 -458 52 -77 56 -103 26 -140 -51 -62 -1089 -941 -1143 -969 -60 -31
-154 -52 -229 -52 -65 0 -67 1 -61 23 5 21 287 903 441 1383 l75 231 52 -4
c29 -2 85 -8 123 -14z m-3118 -916 c325 -276 743 -647 736 -653 -4 -4 -33 -16
-63 -25 -228 -74 -439 -228 -599 -439 -96 -125 -164 -166 -277 -166 -159 0
-290 125 -302 289 -13 187 55 505 154 719 31 70 205 392 211 392 1 0 64 -53
140 -117z m3988 -27 c180 -322 245 -509 276 -797 21 -194 0 -287 -87 -374 -86
-86 -224 -108 -337 -55 -57 27 -88 57 -162 154 -143 190 -365 350 -585 421
-30 9 -59 21 -63 25 -4 4 128 126 295 271 352 308 579 501 583 497 1 -2 38
-65 80 -142z"/>
</g>
</svg>
